<svg xmlns="http://www.w3.org/2000/svg" xmlns:xlink="http://www.w3.org/1999/xlink" width="1280" zoomAndPan="magnify" viewBox="0 0 960 599.999999" height="800" preserveAspectRatio="xMidYMid meet" version="1.0"><defs><filter x="0%" y="0%" width="100%" height="100%" id="838515d466"><feColorMatrix values="0 0 0 0 1 0 0 0 0 1 0 0 0 0 1 0 0 0 1 0" color-interpolation-filters="sRGB"/></filter><g/><mask id="e2844c7b47"><g filter="url(#838515d466)"><rect x="-96" width="1152" fill="#000000" y="-60" height="719.999999" fill-opacity="0.17"/></g></mask><clipPath id="5b1748303d"><path d="M 0.199219 2 L 491 2 L 491 566 L 0.199219 566 Z M 0.199219 2 " clip-rule="nonzero"/></clipPath><clipPath id="513e53bff9"><rect x="0" width="491" y="0" height="566"/></clipPath><mask id="b5c9d1aec6"><g filter="url(#838515d466)"><rect x="-96" width="1152" fill="#000000" y="-60" height="719.999999" fill-opacity="0.14"/></g></mask><clipPath id="4b2b7f29d3"><path d="M 4 7 L 536.40625 7 L 536.40625 592 L 4 592 Z M 4 7 " clip-rule="nonzero"/></clipPath><clipPath id="e47f88b672"><rect x="0" width="541" y="0" height="592"/></clipPath><mask id="0eea360fab"><g filter="url(#838515d466)"><rect x="-96" width="1152" fill="#000000" y="-60" height="719.999999" fill-opacity="0.14"/></g></mask><clipPath id="295c504470"><path d="M 137.339844 0 L 394.988281 0 L 394.988281 147.59375 L 137.339844 147.59375 Z M 137.339844 0 " clip-rule="nonzero"/></clipPath><clipPath id="d74018d0f4"><path d="M 266.164062 -110.054688 C 195.015625 -110.054688 137.339844 -52.375 137.339844 18.769531 C 137.339844 89.917969 195.015625 147.59375 266.164062 147.59375 C 337.3125 147.59375 394.988281 89.917969 394.988281 18.769531 C 394.988281 -52.375 337.3125 -110.054688 266.164062 -110.054688 Z M 266.164062 -110.054688 " clip-rule="nonzero"/></clipPath><clipPath id="c0d7b1752f"><rect x="0" width="532" y="0" height="285"/></clipPath><clipPath id="867e1c50c3"><path d="M 71.078125 418 L 85 418 L 85 431.824219 L 71.078125 431.824219 Z M 71.078125 418 " clip-rule="nonzero"/></clipPath><clipPath id="61ccebb356"><path d="M 69.726562 468.476562 L 85.476562 468.476562 L 85.476562 478.976562 L 69.726562 478.976562 Z M 69.726562 468.476562 " clip-rule="nonzero"/></clipPath><clipPath id="0060b940b8"><path d="M 71.152344 514.078125 L 83.902344 514.078125 L 83.902344 529.828125 L 71.152344 529.828125 Z M 71.152344 514.078125 " clip-rule="nonzero"/></clipPath></defs><g mask="url(#e2844c7b47)"><g transform="matrix(1, 0, 0, 1, 469, 34)"><g clip-path="url(#513e53bff9)"><g clip-path="url(#5b1748303d)"><path fill="#eb332b" d="M 1.347656 183.375 C 4.570312 174.472656 14.363281 169.898438 23.28125 173.0625 C 48.015625 182 75.515625 182.441406 100.59375 174.859375 C 99.417969 166.882812 98.707031 158.46875 98.464844 149.65625 C 97.546875 116.996094 102.382812 84.726562 112.84375 53.730469 C 125.550781 16.070312 146.050781 5.542969 161.011719 3.355469 C 182.140625 0.273438 203.910156 12.980469 213.988281 34.257812 C 220.972656 48.992188 222.460938 67.035156 218.414062 87.890625 C 209.824219 132.15625 181.28125 171.894531 142.058594 194.167969 C 141.613281 194.417969 141.183594 194.664062 140.742188 194.90625 C 144.164062 204.023438 148.652344 211.878906 154.203125 218.4375 C 187.308594 257.464844 251.699219 246.722656 270.644531 242.484375 C 287.8125 238.648438 304.523438 233.320312 322.230469 227.648438 C 350.890625 218.496094 380.535156 209.019531 411.96875 206.644531 C 466.527344 202.476562 530.074219 227.523438 545.578125 283.34375 C 554.003906 313.675781 545.421875 344.132812 537.867188 370.992188 C 536.246094 376.730469 534.636719 382.441406 533.203125 388.121094 C 530 400.753906 521.351562 443.351562 544.46875 461.1875 C 552.148438 467.109375 562.558594 469.675781 574.03125 471.4375 C 574.273438 471.472656 574.511719 471.507812 574.753906 471.546875 C 578.445312 472.109375 582.238281 472.582031 586.066406 473.0625 C 590.132812 473.570312 594.183594 474.082031 598.167969 474.6875 C 632.898438 479.90625 656.125 495.832031 663.5625 519.523438 C 668.761719 536.078125 664.214844 554.453125 651.410156 568.65625 C 639.765625 581.578125 623.730469 588.839844 607.792969 588.839844 C 604.386719 588.839844 600.96875 588.503906 597.605469 587.816406 C 581.71875 584.59375 567.511719 573.4375 558.648438 557.21875 C 549.695312 540.808594 546.921875 521.203125 550.457031 501.421875 C 541.074219 498.738281 531.871094 494.730469 523.539062 488.296875 C 496.386719 467.355469 487.8125 427.765625 499.988281 379.707031 C 501.488281 373.734375 503.179688 367.730469 504.871094 361.699219 C 511.84375 336.964844 518.417969 313.59375 512.5625 292.503906 C 502.117188 254.890625 454.1875 237.785156 414.535156 240.800781 C 387.117188 242.871094 360.65625 251.335938 332.652344 260.28125 C 315.007812 265.921875 296.769531 271.753906 278.097656 275.914062 C 214.859375 290.035156 158.792969 276.800781 128.070312 240.59375 C 120.183594 231.277344 113.839844 220.417969 109.078125 208.058594 C 77.378906 217.277344 42.820312 216.546875 11.644531 205.308594 C 2.75 202.09375 -1.863281 192.269531 1.347656 183.375 Z M 588.71875 540.808594 C 592.726562 548.132812 598.441406 553.035156 604.414062 554.246094 C 611.414062 555.683594 620.066406 552.246094 625.949219 545.722656 C 628.160156 543.277344 633.070312 536.800781 630.867188 529.792969 C 626.113281 514.652344 600.742188 509.714844 593.066406 508.5625 C 590.140625 508.117188 587.167969 507.742188 584.195312 507.363281 C 581.992188 519.539062 583.515625 531.273438 588.71875 540.808594 Z M 133.273438 159.296875 C 159.695312 141.296875 178.671875 112.796875 184.773438 81.363281 C 187.398438 67.835938 186.804688 56.921875 183.019531 48.933594 C 179.8125 42.152344 173.003906 37.15625 167.296875 37.15625 C 166.84375 37.15625 166.410156 37.191406 165.964844 37.25 C 155.128906 38.855469 147.90625 56.96875 145.296875 64.691406 C 136.144531 91.824219 131.894531 120.085938 132.699219 148.703125 C 132.800781 152.339844 132.992188 155.875 133.273438 159.296875 Z M 133.273438 159.296875 " fill-opacity="1" fill-rule="nonzero"/></g></g></g></g><g mask="url(#b5c9d1aec6)"><g transform="matrix(1, 0, 0, 1, 78, 8)"><g clip-path="url(#e47f88b672)"><g clip-path="url(#4b2b7f29d3)"><path fill="#eb332b" d="M 363.613281 318.804688 C 349.132812 318.351562 336.449219 335.269531 330.222656 349.648438 C 327.867188 355.097656 325.808594 360.785156 323.625 366.816406 C 317.953125 382.507812 312.089844 398.75 300.125 412.492188 C 277.878906 438.035156 238.292969 447.53125 201.613281 436.070312 C 180.464844 429.472656 160.609375 416.945312 141.410156 398 C 104.097656 426.785156 56.015625 436.820312 14.914062 422.839844 C 7.175781 420.207031 3.035156 411.796875 5.667969 404.058594 C 8.300781 396.320312 16.71875 392.191406 24.449219 394.8125 C 55.035156 405.246094 92.304688 397.398438 121.542969 375.824219 C 50.578125 287.292969 32.035156 158.070312 75.496094 53.226562 C 81.738281 38.171875 92.480469 17.300781 113.605469 9.789062 C 138.976562 0.765625 164.222656 15.71875 176.953125 33.433594 C 189.433594 50.796875 193.449219 71.265625 196.996094 89.324219 C 206.335938 136.914062 215.984375 186.117188 214.035156 236.367188 C 212.480469 276.488281 202.335938 333.394531 163.046875 377.746094 C 178.53125 392.828125 194.171875 402.726562 210.429688 407.800781 C 235.691406 415.675781 263.375 409.601562 277.804688 393.039062 C 286.132812 383.46875 290.824219 370.488281 295.789062 356.738281 C 298.03125 350.550781 300.339844 344.15625 303.0625 337.871094 C 316.296875 307.316406 338.773438 289.179688 363.292969 289.179688 C 363.550781 289.179688 363.816406 289.1875 364.070312 289.1875 C 395.933594 289.660156 417.078125 319.730469 420.785156 347.796875 C 423.359375 367.191406 419.773438 385.664062 416.316406 403.53125 C 415.289062 408.800781 414.269531 414.066406 413.425781 419.328125 C 409.535156 443.558594 412.15625 461.480469 421.195312 472.609375 C 429.691406 483.058594 445.304688 488.832031 462.992188 488.007812 C 480.863281 487.203125 498.894531 480.5 516.335938 474.003906 C 521.058594 472.226562 526.351562 473.007812 530.382812 476.035156 C 534.414062 479.066406 536.628906 483.9375 536.257812 488.960938 L 528.007812 601.152344 C 527.433594 608.945312 520.941406 614.882812 513.257812 614.882812 C 512.894531 614.882812 512.527344 614.867188 512.15625 614.835938 C 504 614.246094 497.878906 607.144531 498.480469 598.992188 L 505.066406 509.417969 C 492.214844 513.578125 478.53125 516.945312 464.324219 517.59375 C 437.3125 518.761719 412.621094 508.996094 398.230469 491.296875 C 383.621094 473.355469 378.894531 447.550781 384.183594 414.640625 C 385.074219 409.0625 386.15625 403.484375 387.234375 397.898438 C 390.390625 381.65625 393.367188 366.300781 391.429688 351.6875 C 389.363281 336.046875 378.136719 319.015625 363.613281 318.804688 Z M 184.449219 235.234375 C 186.265625 188.425781 176.945312 140.953125 167.941406 95.035156 C 164.835938 79.207031 161.621094 62.835938 152.910156 50.722656 C 147.542969 43.253906 138.101562 36.742188 129.144531 36.742188 C 127.226562 36.742188 125.34375 37.039062 123.519531 37.695312 C 113.503906 41.246094 106.921875 54.738281 102.839844 64.570312 C 63.707031 158.984375 79.988281 275.191406 143.179688 355.460938 C 167.964844 325.949219 182.578125 283.5 184.449219 235.234375 Z M 184.449219 235.234375 " fill-opacity="1" fill-rule="nonzero"/></g></g></g></g><g mask="url(#0eea360fab)"><g transform="matrix(1, 0, 0, 1, 131, -0.000000000000034788)"><g clip-path="url(#c0d7b1752f)"><g clip-path="url(#295c504470)"><g clip-path="url(#d74018d0f4)"><path stroke-linecap="butt" transform="matrix(0.75, 0, 0, 0.75, 137.340468, -110.052755)" fill="none" stroke-linejoin="miter" d="M 171.7648 -0.00257626 C 76.900212 -0.00257626 -0.000832641 76.903677 -0.000832641 171.763056 C -0.000832641 266.627643 76.900212 343.528688 171.7648 343.528688 C 266.629387 343.528688 343.530432 266.627643 343.530432 171.763056 C 343.530432 76.903677 266.629387 -0.00257626 171.7648 -0.00257626 Z M 171.7648 -0.00257626 " stroke="#eb332b" stroke-width="90" stroke-opacity="1" stroke-miterlimit="4"/></g></g></g></g></g><g clip-path="url(#867e1c50c3)"><path fill="#ffffff" d="M 84.097656 430.484375 L 84.101562 430.484375 Z M 73.507812 418.730469 C 73.375 418.730469 73.246094 418.789062 73.109375 418.910156 C 73.09375 418.925781 72.898438 419.113281 72.769531 419.234375 L 72.65625 419.339844 C 72.003906 419.949219 71.707031 421.050781 71.902344 422.140625 C 71.964844 422.492188 72.066406 422.859375 72.203125 423.226562 C 72.894531 425.082031 74.203125 426.691406 75.183594 427.71875 C 76.15625 428.75 77.695312 430.148438 79.511719 430.933594 C 79.871094 431.09375 80.230469 431.210938 80.578125 431.292969 C 81.65625 431.546875 82.773438 431.308594 83.414062 430.691406 L 83.523438 430.589844 C 83.648438 430.472656 83.84375 430.285156 83.871094 430.257812 C 84.273438 429.847656 84.070312 429.503906 83.265625 428.683594 L 83.066406 428.480469 C 82.554688 427.949219 81.699219 427.0625 80.976562 427.148438 C 80.78125 427.171875 80.574219 427.316406 80.359375 427.46875 C 80.140625 427.617188 79.917969 427.773438 79.652344 427.859375 C 78.933594 428.085938 78.207031 427.9375 77.601562 427.4375 C 77.238281 427.140625 76.871094 426.792969 76.539062 426.429688 C 76.199219 426.082031 75.871094 425.695312 75.59375 425.320312 C 75.128906 424.691406 75.019531 423.953125 75.285156 423.25 C 75.382812 422.988281 75.550781 422.773438 75.710938 422.566406 C 75.875 422.355469 76.027344 422.160156 76.0625 421.964844 C 76.1875 421.246094 75.347656 420.347656 74.847656 419.808594 L 74.652344 419.597656 C 74.121094 419.015625 73.796875 418.730469 73.507812 418.730469 Z M 81.449219 432.035156 C 81.089844 432.035156 80.742188 431.988281 80.433594 431.917969 C 80.046875 431.828125 79.652344 431.695312 79.257812 431.523438 C 77.34375 430.691406 75.730469 429.234375 74.71875 428.160156 C 73.699219 427.089844 72.332031 425.40625 71.605469 423.449219 C 71.453125 423.046875 71.34375 422.644531 71.273438 422.253906 C 71.089844 421.21875 71.238281 419.789062 72.21875 418.871094 L 72.328125 418.769531 C 72.464844 418.640625 72.675781 418.4375 72.6875 418.429688 C 73.667969 417.570312 74.542969 418.53125 75.125 419.164062 L 75.316406 419.371094 C 75.898438 419.996094 76.871094 421.042969 76.691406 422.074219 C 76.632812 422.425781 76.410156 422.710938 76.214844 422.960938 C 76.078125 423.136719 75.945312 423.304688 75.882812 423.476562 C 75.695312 423.976562 75.773438 424.484375 76.109375 424.941406 C 76.371094 425.292969 76.679688 425.65625 77.003906 425.992188 C 77.324219 426.335938 77.667969 426.664062 78.007812 426.945312 C 78.445312 427.304688 78.949219 427.410156 79.457031 427.25 C 79.632812 427.191406 79.808594 427.070312 79.992188 426.941406 C 80.25 426.761719 80.546875 426.554688 80.902344 426.515625 C 81.945312 426.390625 82.933594 427.417969 83.527344 428.035156 L 83.722656 428.238281 C 84.328125 428.851562 85.238281 429.777344 84.328125 430.710938 C 84.3125 430.722656 84.097656 430.925781 83.964844 431.054688 L 83.859375 431.152344 C 83.183594 431.800781 82.28125 432.035156 81.449219 432.035156 " fill-opacity="1" fill-rule="nonzero"/></g><g clip-path="url(#61ccebb356)"><path fill="#ffffff" d="M 84.363281 468.496094 L 70.601562 468.496094 C 70.359375 468.496094 70.148438 468.585938 69.976562 468.757812 C 69.804688 468.929688 69.71875 469.136719 69.71875 469.378906 L 69.71875 477.765625 C 69.71875 478.011719 69.804688 478.21875 69.976562 478.390625 C 70.148438 478.5625 70.359375 478.648438 70.601562 478.648438 L 84.363281 478.648438 C 84.605469 478.648438 84.8125 478.5625 84.984375 478.390625 C 85.15625 478.21875 85.246094 478.011719 85.246094 477.765625 L 85.246094 469.378906 C 85.246094 469.136719 85.15625 468.929688 84.984375 468.757812 C 84.8125 468.585938 84.605469 468.496094 84.363281 468.496094 Z M 79.921875 473.574219 L 84.765625 469.253906 C 84.78125 469.296875 84.789062 469.335938 84.789062 469.378906 L 84.789062 477.765625 C 84.789062 477.808594 84.78125 477.851562 84.765625 477.890625 Z M 84.363281 468.953125 C 84.378906 468.957031 84.394531 468.957031 84.410156 468.960938 L 77.761719 474.882812 C 77.683594 474.957031 77.589844 474.992188 77.480469 474.992188 C 77.371094 474.992188 77.277344 474.957031 77.199219 474.882812 L 70.554688 468.960938 C 70.570312 468.957031 70.585938 468.957031 70.601562 468.953125 Z M 70.195312 477.890625 C 70.183594 477.851562 70.175781 477.808594 70.175781 477.765625 L 70.175781 469.378906 C 70.175781 469.335938 70.183594 469.296875 70.195312 469.253906 L 75.042969 473.574219 Z M 70.601562 478.191406 C 70.585938 478.191406 70.570312 478.191406 70.554688 478.1875 L 75.386719 473.878906 L 76.894531 475.226562 C 77.0625 475.375 77.257812 475.449219 77.480469 475.449219 C 77.707031 475.449219 77.902344 475.375 78.070312 475.226562 L 79.578125 473.878906 L 84.410156 478.1875 C 84.394531 478.191406 84.378906 478.191406 84.363281 478.191406 Z M 70.601562 478.191406 " fill-opacity="1" fill-rule="nonzero"/></g><path fill="#ffffff" d="M 77.484375 523.117188 C 77.871094 523.117188 78.238281 523.042969 78.59375 522.894531 C 78.949219 522.75 79.265625 522.539062 79.535156 522.269531 C 79.808594 521.996094 80.019531 521.683594 80.164062 521.328125 C 80.3125 520.972656 80.386719 520.601562 80.386719 520.21875 C 80.386719 519.832031 80.3125 519.460938 80.164062 519.105469 C 80.019531 518.75 79.808594 518.4375 79.535156 518.167969 C 79.265625 517.894531 78.949219 517.683594 78.59375 517.539062 C 78.238281 517.390625 77.871094 517.316406 77.484375 517.316406 C 77.101562 517.316406 76.730469 517.390625 76.375 517.539062 C 76.019531 517.683594 75.707031 517.894531 75.433594 518.167969 C 75.164062 518.4375 74.953125 518.75 74.804688 519.105469 C 74.660156 519.460938 74.585938 519.832031 74.585938 520.21875 C 74.585938 520.601562 74.660156 520.972656 74.808594 521.324219 C 74.953125 521.679688 75.164062 521.996094 75.4375 522.265625 C 75.707031 522.539062 76.023438 522.746094 76.375 522.894531 C 76.730469 523.042969 77.101562 523.117188 77.484375 523.117188 Z M 77.484375 517.832031 C 77.804688 517.832031 78.109375 517.894531 78.402344 518.015625 C 78.695312 518.136719 78.953125 518.308594 79.175781 518.53125 C 79.402344 518.757812 79.574219 519.015625 79.695312 519.308594 C 79.816406 519.601562 79.878906 519.90625 79.878906 520.226562 C 79.878906 520.542969 79.816406 520.847656 79.695312 521.140625 C 79.574219 521.433594 79.402344 521.691406 79.175781 521.917969 C 78.953125 522.140625 78.695312 522.3125 78.402344 522.433594 C 78.109375 522.558594 77.804688 522.617188 77.484375 522.617188 C 77.167969 522.617188 76.863281 522.558594 76.570312 522.433594 C 76.277344 522.3125 76.019531 522.140625 75.792969 521.917969 C 75.570312 521.691406 75.398438 521.433594 75.273438 521.140625 C 75.152344 520.847656 75.09375 520.542969 75.09375 520.226562 C 75.09375 519.90625 75.152344 519.601562 75.273438 519.308594 C 75.398438 519.015625 75.570312 518.757812 75.792969 518.53125 C 76.019531 518.308594 76.277344 518.136719 76.570312 518.015625 C 76.863281 517.894531 77.167969 517.832031 77.484375 517.832031 Z M 77.484375 517.832031 " fill-opacity="1" fill-rule="nonzero"/><g clip-path="url(#0060b940b8)"><path fill="#ffffff" d="M 77.277344 529.8125 C 77.328125 529.878906 77.398438 529.914062 77.484375 529.914062 C 77.574219 529.914062 77.640625 529.878906 77.695312 529.8125 L 82.472656 523.007812 L 82.488281 522.984375 C 82.609375 522.769531 82.714844 522.542969 82.804688 522.3125 C 82.894531 522.082031 82.96875 521.847656 83.03125 521.609375 C 83.089844 521.367188 83.132812 521.125 83.164062 520.878906 C 83.191406 520.632812 83.203125 520.386719 83.199219 520.140625 C 83.195312 519.890625 83.175781 519.644531 83.140625 519.402344 C 83.105469 519.15625 83.054688 518.914062 82.988281 518.675781 C 82.921875 518.4375 82.839844 518.207031 82.742188 517.976562 C 82.644531 517.75 82.535156 517.53125 82.40625 517.316406 C 82.28125 517.101562 82.144531 516.898438 81.992188 516.703125 C 81.839844 516.507812 81.675781 516.324219 81.5 516.152344 C 81.320312 515.976562 81.136719 515.816406 80.9375 515.664062 C 80.742188 515.515625 80.535156 515.378906 80.320312 515.257812 C 80.105469 515.136719 79.882812 515.027344 79.652344 514.933594 C 79.425781 514.839844 79.191406 514.761719 78.953125 514.695312 C 78.710938 514.632812 78.46875 514.585938 78.226562 514.554688 C 77.980469 514.519531 77.734375 514.503906 77.484375 514.503906 C 77.238281 514.503906 76.992188 514.519531 76.746094 514.554688 C 76.5 514.585938 76.257812 514.632812 76.019531 514.695312 C 75.78125 514.761719 75.546875 514.839844 75.316406 514.933594 C 75.089844 515.027344 74.867188 515.136719 74.652344 515.257812 C 74.4375 515.378906 74.230469 515.515625 74.035156 515.664062 C 73.835938 515.816406 73.648438 515.976562 73.472656 516.152344 C 73.296875 516.324219 73.132812 516.507812 72.980469 516.703125 C 72.828125 516.898438 72.6875 517.101562 72.5625 517.316406 C 72.4375 517.53125 72.324219 517.75 72.230469 517.976562 C 72.132812 518.207031 72.050781 518.4375 71.984375 518.675781 C 71.914062 518.914062 71.863281 519.15625 71.828125 519.402344 C 71.792969 519.644531 71.773438 519.890625 71.769531 520.140625 C 71.765625 520.386719 71.78125 520.632812 71.808594 520.878906 C 71.835938 521.125 71.882812 521.367188 71.941406 521.609375 C 72 521.847656 72.078125 522.082031 72.167969 522.3125 C 72.257812 522.542969 72.363281 522.769531 72.484375 522.984375 L 72.5 523.007812 Z M 72.285156 520.21875 C 72.285156 519.820312 72.328125 519.429688 72.417969 519.042969 C 72.507812 518.65625 72.640625 518.285156 72.8125 517.929688 C 72.988281 517.570312 73.199219 517.242188 73.453125 516.933594 C 73.703125 516.625 73.984375 516.351562 74.296875 516.105469 C 74.609375 515.863281 74.949219 515.660156 75.308594 515.492188 C 75.667969 515.328125 76.042969 515.203125 76.429688 515.125 C 76.820312 515.042969 77.210938 515.007812 77.609375 515.015625 C 78.003906 515.027344 78.394531 515.082031 78.78125 515.179688 C 79.164062 515.277344 79.53125 515.417969 79.882812 515.601562 C 80.234375 515.785156 80.5625 516.003906 80.863281 516.261719 C 81.167969 516.519531 81.433594 516.808594 81.671875 517.128906 C 81.90625 517.445312 82.101562 517.789062 82.261719 518.152344 C 82.417969 518.515625 82.53125 518.894531 82.601562 519.28125 C 82.675781 519.671875 82.699219 520.066406 82.683594 520.460938 C 82.664062 520.859375 82.601562 521.246094 82.492188 521.628906 C 82.386719 522.011719 82.234375 522.375 82.042969 522.722656 L 77.484375 529.214844 L 72.925781 522.722656 C 72.496094 521.941406 72.285156 521.109375 72.285156 520.21875 Z M 72.285156 520.21875 " fill-opacity="1" fill-rule="nonzero"/></g><g fill="#ffffff" fill-opacity="1"><g transform="translate(701.924083, 219.577525)"><g><path d="M 9.25 -7.71875 C 9.25 -7.113281 9.109375 -6.550781 8.828125 -6.03125 C 8.546875 -5.507812 8.101562 -5.085938 7.5 -4.765625 C 6.894531 -4.441406 6.132812 -4.28125 5.21875 -4.28125 L 3.34375 -4.28125 L 3.34375 0 L 1.109375 0 L 1.109375 -11.171875 L 5.21875 -11.171875 C 6.082031 -11.171875 6.816406 -11.019531 7.421875 -10.71875 C 8.035156 -10.414062 8.492188 -10.003906 8.796875 -9.484375 C 9.097656 -8.960938 9.25 -8.375 9.25 -7.71875 Z M 5.125 -6.09375 C 5.738281 -6.09375 6.191406 -6.234375 6.484375 -6.515625 C 6.785156 -6.796875 6.9375 -7.195312 6.9375 -7.71875 C 6.9375 -8.800781 6.332031 -9.34375 5.125 -9.34375 L 3.34375 -9.34375 L 3.34375 -6.09375 Z M 5.125 -6.09375 "/></g></g></g><g fill="#ffffff" fill-opacity="1"><g transform="translate(711.649752, 219.577525)"><g><path d="M 6.09375 -8.984375 C 6.769531 -8.984375 7.367188 -8.835938 7.890625 -8.546875 C 8.410156 -8.253906 8.816406 -7.820312 9.109375 -7.25 C 9.398438 -6.6875 9.546875 -6.003906 9.546875 -5.203125 L 9.546875 0 L 7.3125 0 L 7.3125 -4.890625 C 7.3125 -5.597656 7.132812 -6.140625 6.78125 -6.515625 C 6.425781 -6.898438 5.945312 -7.09375 5.34375 -7.09375 C 4.726562 -7.09375 4.238281 -6.898438 3.875 -6.515625 C 3.519531 -6.140625 3.34375 -5.597656 3.34375 -4.890625 L 3.34375 0 L 1.109375 0 L 1.109375 -11.84375 L 3.34375 -11.84375 L 3.34375 -7.765625 C 3.632812 -8.148438 4.019531 -8.445312 4.5 -8.65625 C 4.976562 -8.875 5.507812 -8.984375 6.09375 -8.984375 Z M 6.09375 -8.984375 "/></g></g></g><g fill="#ffffff" fill-opacity="1"><g transform="translate(722.223211, 219.577525)"><g><path d="M 5.046875 0.140625 C 4.191406 0.140625 3.421875 -0.046875 2.734375 -0.421875 C 2.054688 -0.796875 1.519531 -1.332031 1.125 -2.03125 C 0.738281 -2.726562 0.546875 -3.53125 0.546875 -4.4375 C 0.546875 -5.34375 0.742188 -6.140625 1.140625 -6.828125 C 1.546875 -7.523438 2.09375 -8.0625 2.78125 -8.4375 C 3.476562 -8.820312 4.253906 -9.015625 5.109375 -9.015625 C 5.960938 -9.015625 6.734375 -8.820312 7.421875 -8.4375 C 8.117188 -8.0625 8.664062 -7.523438 9.0625 -6.828125 C 9.457031 -6.140625 9.65625 -5.34375 9.65625 -4.4375 C 9.65625 -3.53125 9.453125 -2.726562 9.046875 -2.03125 C 8.640625 -1.332031 8.085938 -0.796875 7.390625 -0.421875 C 6.691406 -0.046875 5.910156 0.140625 5.046875 0.140625 Z M 5.046875 -1.8125 C 5.441406 -1.8125 5.816406 -1.910156 6.171875 -2.109375 C 6.535156 -2.304688 6.820312 -2.597656 7.03125 -2.984375 C 7.25 -3.378906 7.359375 -3.863281 7.359375 -4.4375 C 7.359375 -5.28125 7.132812 -5.925781 6.6875 -6.375 C 6.25 -6.832031 5.710938 -7.0625 5.078125 -7.0625 C 4.429688 -7.0625 3.890625 -6.832031 3.453125 -6.375 C 3.023438 -5.925781 2.8125 -5.28125 2.8125 -4.4375 C 2.8125 -3.59375 3.019531 -2.941406 3.4375 -2.484375 C 3.863281 -2.035156 4.398438 -1.8125 5.046875 -1.8125 Z M 5.046875 -1.8125 "/></g></g></g><g fill="#ffffff" fill-opacity="1"><g transform="translate(732.428754, 219.577525)"><g><path d="M 6.015625 -8.984375 C 7.066406 -8.984375 7.914062 -8.648438 8.5625 -7.984375 C 9.21875 -7.316406 9.546875 -6.390625 9.546875 -5.203125 L 9.546875 0 L 7.3125 0 L 7.3125 -4.890625 C 7.3125 -5.597656 7.132812 -6.140625 6.78125 -6.515625 C 6.425781 -6.898438 5.945312 -7.09375 5.34375 -7.09375 C 4.726562 -7.09375 4.238281 -6.898438 3.875 -6.515625 C 3.519531 -6.140625 3.34375 -5.597656 3.34375 -4.890625 L 3.34375 0 L 1.109375 0 L 1.109375 -8.859375 L 3.34375 -8.859375 L 3.34375 -7.765625 C 3.644531 -8.148438 4.023438 -8.445312 4.484375 -8.65625 C 4.953125 -8.875 5.460938 -8.984375 6.015625 -8.984375 Z M 6.015625 -8.984375 "/></g></g></g><g fill="#ffffff" fill-opacity="1"><g transform="translate(743.002213, 219.577525)"><g><path d="M 9.34375 -4.625 C 9.34375 -4.300781 9.320312 -4.015625 9.28125 -3.765625 L 2.796875 -3.765625 C 2.847656 -3.117188 3.070312 -2.613281 3.46875 -2.25 C 3.863281 -1.894531 4.347656 -1.71875 4.921875 -1.71875 C 5.753906 -1.71875 6.347656 -2.070312 6.703125 -2.78125 L 9.125 -2.78125 C 8.863281 -1.925781 8.367188 -1.222656 7.640625 -0.671875 C 6.921875 -0.128906 6.03125 0.140625 4.96875 0.140625 C 4.125 0.140625 3.359375 -0.046875 2.671875 -0.421875 C 1.992188 -0.796875 1.46875 -1.332031 1.09375 -2.03125 C 0.71875 -2.726562 0.53125 -3.53125 0.53125 -4.4375 C 0.53125 -5.351562 0.710938 -6.15625 1.078125 -6.84375 C 1.453125 -7.539062 1.972656 -8.078125 2.640625 -8.453125 C 3.316406 -8.828125 4.09375 -9.015625 4.96875 -9.015625 C 5.8125 -9.015625 6.566406 -8.832031 7.234375 -8.46875 C 7.898438 -8.101562 8.414062 -7.585938 8.78125 -6.921875 C 9.15625 -6.253906 9.34375 -5.488281 9.34375 -4.625 Z M 7.03125 -5.265625 C 7.019531 -5.835938 6.8125 -6.296875 6.40625 -6.640625 C 6 -6.992188 5.5 -7.171875 4.90625 -7.171875 C 4.351562 -7.171875 3.882812 -7 3.5 -6.65625 C 3.125 -6.320312 2.894531 -5.859375 2.8125 -5.265625 Z M 7.03125 -5.265625 "/></g></g></g><g fill="#ffffff" fill-opacity="1"><g transform="translate(752.871838, 219.577525)"><g/></g></g><g fill="#ffffff" fill-opacity="1"><g transform="translate(756.678921, 219.577525)"><g><path d="M 10.65625 0 L 8.421875 0 L 3.34375 -7.65625 L 3.34375 0 L 1.109375 0 L 1.109375 -11.1875 L 3.34375 -11.1875 L 8.421875 -3.5 L 8.421875 -11.1875 L 10.65625 -11.1875 Z M 10.65625 0 "/></g></g></g><g fill="#ffffff" fill-opacity="1"><g transform="translate(768.4361, 219.577525)"><g><path d="M 9.46875 -8.859375 L 9.46875 0 L 7.21875 0 L 7.21875 -1.125 C 6.925781 -0.738281 6.546875 -0.4375 6.078125 -0.21875 C 5.617188 0 5.117188 0.109375 4.578125 0.109375 C 3.878906 0.109375 3.265625 -0.0351562 2.734375 -0.328125 C 2.203125 -0.617188 1.785156 -1.050781 1.484375 -1.625 C 1.179688 -2.195312 1.03125 -2.875 1.03125 -3.65625 L 1.03125 -8.859375 L 3.265625 -8.859375 L 3.265625 -3.984375 C 3.265625 -3.273438 3.4375 -2.734375 3.78125 -2.359375 C 4.132812 -1.984375 4.617188 -1.796875 5.234375 -1.796875 C 5.847656 -1.796875 6.332031 -1.984375 6.6875 -2.359375 C 7.039062 -2.734375 7.21875 -3.273438 7.21875 -3.984375 L 7.21875 -8.859375 Z M 9.46875 -8.859375 "/></g></g></g><g fill="#ffffff" fill-opacity="1"><g transform="translate(779.009559, 219.577525)"><g><path d="M 12.109375 -8.984375 C 13.203125 -8.984375 14.082031 -8.648438 14.75 -7.984375 C 15.414062 -7.316406 15.75 -6.390625 15.75 -5.203125 L 15.75 0 L 13.5 0 L 13.5 -4.890625 C 13.5 -5.585938 13.320312 -6.117188 12.96875 -6.484375 C 12.625 -6.859375 12.144531 -7.046875 11.53125 -7.046875 C 10.925781 -7.046875 10.441406 -6.859375 10.078125 -6.484375 C 9.722656 -6.117188 9.546875 -5.585938 9.546875 -4.890625 L 9.546875 0 L 7.3125 0 L 7.3125 -4.890625 C 7.3125 -5.585938 7.132812 -6.117188 6.78125 -6.484375 C 6.425781 -6.859375 5.945312 -7.046875 5.34375 -7.046875 C 4.726562 -7.046875 4.238281 -6.859375 3.875 -6.484375 C 3.519531 -6.117188 3.34375 -5.585938 3.34375 -4.890625 L 3.34375 0 L 1.109375 0 L 1.109375 -8.859375 L 3.34375 -8.859375 L 3.34375 -7.796875 C 3.632812 -8.171875 4.003906 -8.460938 4.453125 -8.671875 C 4.910156 -8.878906 5.410156 -8.984375 5.953125 -8.984375 C 6.640625 -8.984375 7.253906 -8.835938 7.796875 -8.546875 C 8.347656 -8.253906 8.773438 -7.835938 9.078125 -7.296875 C 9.359375 -7.804688 9.773438 -8.210938 10.328125 -8.515625 C 10.878906 -8.828125 11.472656 -8.984375 12.109375 -8.984375 Z M 12.109375 -8.984375 "/></g></g></g><g fill="#ffffff" fill-opacity="1"><g transform="translate(795.773528, 219.577525)"><g><path d="M 3.34375 -7.5625 C 3.632812 -7.988281 4.03125 -8.335938 4.53125 -8.609375 C 5.039062 -8.878906 5.617188 -9.015625 6.265625 -9.015625 C 7.023438 -9.015625 7.710938 -8.828125 8.328125 -8.453125 C 8.941406 -8.078125 9.425781 -7.546875 9.78125 -6.859375 C 10.132812 -6.171875 10.3125 -5.375 10.3125 -4.46875 C 10.3125 -3.5625 10.132812 -2.757812 9.78125 -2.0625 C 9.425781 -1.363281 8.941406 -0.820312 8.328125 -0.4375 C 7.710938 -0.0507812 7.023438 0.140625 6.265625 0.140625 C 5.609375 0.140625 5.03125 0.0078125 4.53125 -0.25 C 4.039062 -0.507812 3.644531 -0.847656 3.34375 -1.265625 L 3.34375 0 L 1.109375 0 L 1.109375 -11.84375 L 3.34375 -11.84375 Z M 8.03125 -4.46875 C 8.03125 -5 7.921875 -5.457031 7.703125 -5.84375 C 7.484375 -6.238281 7.191406 -6.535156 6.828125 -6.734375 C 6.472656 -6.941406 6.09375 -7.046875 5.6875 -7.046875 C 5.28125 -7.046875 4.894531 -6.941406 4.53125 -6.734375 C 4.175781 -6.523438 3.890625 -6.222656 3.671875 -5.828125 C 3.453125 -5.429688 3.34375 -4.96875 3.34375 -4.4375 C 3.34375 -3.894531 3.453125 -3.425781 3.671875 -3.03125 C 3.890625 -2.644531 4.175781 -2.347656 4.53125 -2.140625 C 4.894531 -1.929688 5.28125 -1.828125 5.6875 -1.828125 C 6.09375 -1.828125 6.472656 -1.929688 6.828125 -2.140625 C 7.191406 -2.359375 7.484375 -2.660156 7.703125 -3.046875 C 7.921875 -3.441406 8.03125 -3.914062 8.03125 -4.46875 Z M 8.03125 -4.46875 "/></g></g></g><g fill="#ffffff" fill-opacity="1"><g transform="translate(806.618921, 219.577525)"><g><path d="M 9.34375 -4.625 C 9.34375 -4.300781 9.320312 -4.015625 9.28125 -3.765625 L 2.796875 -3.765625 C 2.847656 -3.117188 3.070312 -2.613281 3.46875 -2.25 C 3.863281 -1.894531 4.347656 -1.71875 4.921875 -1.71875 C 5.753906 -1.71875 6.347656 -2.070312 6.703125 -2.78125 L 9.125 -2.78125 C 8.863281 -1.925781 8.367188 -1.222656 7.640625 -0.671875 C 6.921875 -0.128906 6.03125 0.140625 4.96875 0.140625 C 4.125 0.140625 3.359375 -0.046875 2.671875 -0.421875 C 1.992188 -0.796875 1.46875 -1.332031 1.09375 -2.03125 C 0.71875 -2.726562 0.53125 -3.53125 0.53125 -4.4375 C 0.53125 -5.351562 0.710938 -6.15625 1.078125 -6.84375 C 1.453125 -7.539062 1.972656 -8.078125 2.640625 -8.453125 C 3.316406 -8.828125 4.09375 -9.015625 4.96875 -9.015625 C 5.8125 -9.015625 6.566406 -8.832031 7.234375 -8.46875 C 7.898438 -8.101562 8.414062 -7.585938 8.78125 -6.921875 C 9.15625 -6.253906 9.34375 -5.488281 9.34375 -4.625 Z M 7.03125 -5.265625 C 7.019531 -5.835938 6.8125 -6.296875 6.40625 -6.640625 C 6 -6.992188 5.5 -7.171875 4.90625 -7.171875 C 4.351562 -7.171875 3.882812 -7 3.5 -6.65625 C 3.125 -6.320312 2.894531 -5.859375 2.8125 -5.265625 Z M 7.03125 -5.265625 "/></g></g></g><g fill="#ffffff" fill-opacity="1"><g transform="translate(816.488546, 219.577525)"><g><path d="M 3.34375 -7.484375 C 3.632812 -7.953125 4.007812 -8.316406 4.46875 -8.578125 C 4.9375 -8.847656 5.46875 -8.984375 6.0625 -8.984375 L 6.0625 -6.640625 L 5.46875 -6.640625 C 4.769531 -6.640625 4.238281 -6.472656 3.875 -6.140625 C 3.519531 -5.804688 3.34375 -5.234375 3.34375 -4.421875 L 3.34375 0 L 1.109375 0 L 1.109375 -8.859375 L 3.34375 -8.859375 Z M 3.34375 -7.484375 "/></g></g></g></svg>