<svg xmlns="http://www.w3.org/2000/svg" xmlns:xlink="http://www.w3.org/1999/xlink" width="1280" zoomAndPan="magnify" viewBox="0 0 960 599.999999" height="800" preserveAspectRatio="xMidYMid meet" version="1.0"><defs><filter x="0%" y="0%" width="100%" height="100%" id="17937feed4"><feColorMatrix values="0 0 0 0 1 0 0 0 0 1 0 0 0 0 1 0 0 0 1 0" color-interpolation-filters="sRGB"/></filter><mask id="b76d784f16"><g filter="url(#17937feed4)"><rect x="-96" width="1152" fill="#000000" y="-60" height="719.999999" fill-opacity="0.1"/></g></mask><clipPath id="4cba5f17b5"><path d="M 0.519531 3 L 487 3 L 487 571 L 0.519531 571 Z M 0.519531 3 " clip-rule="nonzero"/></clipPath><clipPath id="1c9e221b0e"><rect x="0" width="487" y="0" height="571"/></clipPath><mask id="1726f75e69"><g filter="url(#17937feed4)"><rect x="-96" width="1152" fill="#000000" y="-60" height="719.999999" fill-opacity="0.07"/></g></mask><clipPath id="30e853c4f2"><path d="M 5 7 L 536.640625 7 L 536.640625 597 L 5 597 Z M 5 7 " clip-rule="nonzero"/></clipPath><clipPath id="7dbf2cff22"><rect x="0" width="542" y="0" height="597"/></clipPath></defs><g mask="url(#b76d784f16)"><g transform="matrix(1, 0, 0, 1, 473, 29)"><g clip-path="url(#1c9e221b0e)"><g clip-path="url(#4cba5f17b5)"><path fill="#eb332b" d="M 1.582031 183.726562 C 4.804688 174.824219 14.597656 170.25 23.515625 173.414062 C 48.25 182.351562 75.75 182.792969 100.828125 175.210938 C 99.652344 167.234375 98.941406 158.820312 98.699219 150.007812 C 97.78125 117.347656 102.617188 85.078125 113.074219 54.082031 C 125.785156 16.421875 146.285156 5.894531 161.246094 3.707031 C 182.375 0.625 204.144531 13.332031 214.222656 34.609375 C 221.207031 49.34375 222.695312 67.386719 218.648438 88.242188 C 210.058594 132.507812 181.515625 172.246094 142.292969 194.519531 C 141.847656 194.769531 141.417969 195.015625 140.976562 195.257812 C 144.398438 204.375 148.886719 212.230469 154.4375 218.789062 C 187.542969 257.8125 251.933594 247.074219 270.878906 242.835938 C 288.042969 239 304.757812 233.671875 322.464844 228 C 351.125 218.847656 380.769531 209.371094 412.203125 206.996094 C 466.761719 202.828125 530.308594 227.875 545.8125 283.695312 C 554.238281 314.027344 545.65625 344.484375 538.101562 371.34375 C 536.480469 377.078125 534.871094 382.792969 533.4375 388.472656 C 530.234375 401.105469 521.585938 443.703125 544.703125 461.539062 C 552.382812 467.460938 562.792969 470.027344 574.265625 471.785156 C 574.507812 471.824219 574.746094 471.859375 574.988281 471.898438 C 578.679688 472.460938 582.472656 472.933594 586.300781 473.414062 C 590.367188 473.921875 594.417969 474.433594 598.402344 475.039062 C 633.132812 480.257812 656.359375 496.183594 663.796875 519.875 C 668.996094 536.429688 664.449219 554.804688 651.644531 569.007812 C 640 581.929688 623.964844 589.1875 608.027344 589.1875 C 604.621094 589.1875 601.203125 588.855469 597.839844 588.167969 C 581.953125 584.945312 567.746094 573.789062 558.882812 557.570312 C 549.929688 541.160156 547.15625 521.554688 550.691406 501.769531 C 541.308594 499.085938 532.105469 495.082031 523.773438 488.648438 C 496.621094 467.707031 488.046875 428.117188 500.222656 380.058594 C 501.722656 374.085938 503.414062 368.082031 505.105469 362.050781 C 512.078125 337.316406 518.652344 313.945312 512.796875 292.855469 C 502.351562 255.242188 454.421875 238.136719 414.769531 241.152344 C 387.351562 243.222656 360.890625 251.6875 332.886719 260.632812 C 315.242188 266.273438 297.003906 272.105469 278.332031 276.265625 C 215.09375 290.386719 159.027344 277.152344 128.304688 240.945312 C 120.417969 231.628906 114.074219 220.769531 109.3125 208.410156 C 77.613281 217.628906 43.054688 216.894531 11.878906 205.660156 C 2.984375 202.445312 -1.628906 192.617188 1.582031 183.726562 Z M 588.953125 541.160156 C 592.960938 548.484375 598.675781 553.386719 604.648438 554.597656 C 611.648438 556.035156 620.300781 552.59375 626.183594 546.074219 C 628.394531 543.628906 633.304688 537.152344 631.101562 530.144531 C 626.347656 515.003906 600.976562 510.066406 593.300781 508.914062 C 590.375 508.46875 587.402344 508.09375 584.429688 507.714844 C 582.226562 519.890625 583.75 531.621094 588.953125 541.160156 Z M 133.507812 159.648438 C 159.929688 141.648438 178.90625 113.148438 185.007812 81.714844 C 187.628906 68.1875 187.039062 57.273438 183.253906 49.28125 C 180.046875 42.503906 173.238281 37.507812 167.53125 37.507812 C 167.078125 37.507812 166.644531 37.542969 166.199219 37.601562 C 155.363281 39.207031 148.140625 57.320312 145.53125 65.042969 C 136.378906 92.175781 132.125 120.4375 132.933594 149.054688 C 133.035156 152.691406 133.226562 156.226562 133.507812 159.648438 Z M 133.507812 159.648438 " fill-opacity="1" fill-rule="nonzero"/></g></g></g></g><g mask="url(#1726f75e69)"><g transform="matrix(1, 0, 0, 1, 82, 3)"><g clip-path="url(#7dbf2cff22)"><g clip-path="url(#30e853c4f2)"><path fill="#eb332b" d="M 363.847656 319.15625 C 349.367188 318.703125 336.683594 335.621094 330.457031 350 C 328.101562 355.449219 326.042969 361.136719 323.859375 367.164062 C 318.1875 382.859375 312.324219 399.101562 300.359375 412.84375 C 278.113281 438.386719 238.527344 447.878906 201.847656 436.421875 C 180.699219 429.824219 160.84375 417.296875 141.644531 398.351562 C 104.332031 427.132812 56.25 437.171875 15.148438 423.191406 C 7.410156 420.558594 3.269531 412.148438 5.902344 404.410156 C 8.535156 396.671875 16.953125 392.542969 24.683594 395.164062 C 55.269531 405.597656 92.539062 397.75 121.777344 376.175781 C 50.8125 287.644531 32.269531 158.421875 75.730469 53.578125 C 81.972656 38.523438 92.714844 17.652344 113.839844 10.140625 C 139.210938 1.117188 164.457031 16.070312 177.1875 33.785156 C 189.664062 51.148438 193.683594 71.617188 197.230469 89.675781 C 206.570312 137.265625 216.21875 186.46875 214.269531 236.71875 C 212.714844 276.839844 202.570312 333.742188 163.28125 378.097656 C 178.765625 393.179688 194.40625 403.078125 210.660156 408.152344 C 235.925781 416.027344 263.609375 409.953125 278.039062 393.386719 C 286.367188 383.820312 291.058594 370.839844 296.023438 357.089844 C 298.265625 350.902344 300.574219 344.507812 303.296875 338.222656 C 316.53125 307.667969 339.007812 289.53125 363.527344 289.53125 C 363.785156 289.53125 364.046875 289.535156 364.304688 289.535156 C 396.167969 290.007812 417.3125 320.082031 421.019531 348.148438 C 423.59375 367.542969 420.007812 386.015625 416.546875 403.882812 C 415.523438 409.152344 414.503906 414.417969 413.660156 419.679688 C 409.769531 443.910156 412.386719 461.832031 421.429688 472.960938 C 429.925781 483.410156 445.539062 489.183594 463.226562 488.359375 C 481.097656 487.554688 499.128906 480.851562 516.570312 474.351562 C 521.292969 472.578125 526.585938 473.359375 530.617188 476.386719 C 534.648438 479.417969 536.863281 484.289062 536.492188 489.3125 L 528.242188 601.503906 C 527.667969 609.296875 521.175781 615.234375 513.492188 615.234375 C 513.128906 615.234375 512.761719 615.21875 512.390625 615.1875 C 504.234375 614.597656 498.113281 607.492188 498.714844 599.34375 L 505.300781 509.765625 C 492.449219 513.925781 478.765625 517.296875 464.558594 517.945312 C 437.542969 519.113281 412.855469 509.347656 398.464844 491.648438 C 383.855469 473.707031 379.128906 447.902344 384.417969 414.992188 C 385.308594 409.414062 386.386719 403.835938 387.46875 398.25 C 390.621094 382.007812 393.601562 366.652344 391.664062 352.039062 C 389.597656 336.398438 378.371094 319.367188 363.847656 319.15625 Z M 184.683594 235.585938 C 186.5 188.777344 177.179688 141.304688 168.175781 95.386719 C 165.070312 79.558594 161.855469 63.1875 153.144531 51.074219 C 147.777344 43.601562 138.335938 37.09375 129.378906 37.09375 C 127.460938 37.09375 125.578125 37.390625 123.753906 38.046875 C 113.738281 41.597656 107.15625 55.089844 103.074219 64.921875 C 63.941406 159.332031 80.222656 275.542969 143.414062 355.8125 C 168.199219 326.300781 182.8125 283.851562 184.683594 235.585938 Z M 184.683594 235.585938 " fill-opacity="1" fill-rule="nonzero"/></g></g></g></g></svg>